<svg width="100" height="100" viewBox="0 0 100 100" fill="none" xmlns="http://www.w3.org/2000/svg">
<g clip-path="url(#clip0_32_53)">
<path d="M83.6667 73.2917V25L58.6667 0H25.3333C20.75 0 17.0417 3.75 17.0417 8.33333L17 75C17 79.5833 20.7083 83.3333 25.2917 83.3333H75.3333C77.2083 83.3333 78.875 82.7083 80.2917 81.6667L61.8333 63.2083C58.5 65.375 54.5833 66.6667 50.3333 66.6667C38.8333 66.6667 29.5 57.3333 29.5 45.8333C29.5 34.3333 38.8333 25 50.3333 25C61.8333 25 71.1667 34.3333 71.1667 45.8333C71.1667 50.0833 69.875 54 67.7083 57.2917L83.6667 73.2917ZM37.8333 45.8333C37.8333 52.75 43.4167 58.3333 50.3333 58.3333C57.25 58.3333 62.8333 52.75 62.8333 45.8333C62.8333 38.9167 57.25 33.3333 50.3333 33.3333C43.4167 33.3333 37.8333 38.9167 37.8333 45.8333Z" fill="#0058AF"/>
</g>
<defs>
<clipPath id="clip0_32_53">
<rect width="100" height="100" fill="white"/>
</clipPath>
</defs>
</svg>
