<svg width="100" height="100" viewBox="0 0 100 100" fill="none" xmlns="http://www.w3.org/2000/svg">
<path d="M77.7778 44.4444C79.6667 44.4444 81.5 44.6667 83.3333 44.9444V18.1667L41.6667 0L0 18.1667V45.4444C0 70.6667 17.7778 94.2778 41.6667 100C44.7222 99.2778 47.6667 98.2222 50.5556 96.9444C46.7222 91.5 44.4444 84.8889 44.4444 77.7778C44.4444 59.3889 59.3889 44.4444 77.7778 44.4444Z" fill="#0058AF"/>
<path d="M77.7778 55.5555C65.5 55.5555 55.5555 65.5 55.5555 77.7778C55.5555 90.0555 65.5 100 77.7778 100C90.0555 100 100 90.0555 100 77.7778C100 65.5 90.0555 55.5555 77.7778 55.5555ZM77.7778 63.2222C81.2222 63.2222 84 66.0555 84 69.4444C84 72.8333 81.1667 75.6667 77.7778 75.6667C74.3889 75.6667 71.5555 72.8333 71.5555 69.4444C71.5555 66.0555 74.3333 63.2222 77.7778 63.2222ZM77.7778 93.0555C72.6111 93.0555 68.1111 90.5 65.3333 86.5555C65.6111 82.5555 73.7222 80.5555 77.7778 80.5555C81.8333 80.5555 89.9444 82.5555 90.2222 86.5555C87.4444 90.5 82.9444 93.0555 77.7778 93.0555Z" fill="#0058AF"/>
</svg>
