<svg width="40" height="40" viewBox="0 0 40 40" fill="none" xmlns="http://www.w3.org/2000/svg">
<circle cx="20" cy="20" r="20" fill="#D9D9D9"/>
<path d="M20 4C11.168 4 4 11.168 4 20C4 28.832 11.168 36 20 36C28.832 36 36 28.832 36 20C36 11.168 28.832 4 20 4ZM20 10.4C23.088 10.4 25.6 12.912 25.6 16C25.6 19.088 23.088 21.6 20 21.6C16.912 21.6 14.4 19.088 14.4 16C14.4 12.912 16.912 10.4 20 10.4ZM20 32.8C16.752 32.8 12.912 31.488 10.176 28.192C12.88 26.08 16.288 24.8 20 24.8C23.712 24.8 27.12 26.08 29.824 28.192C27.088 31.488 23.248 32.8 20 32.8Z" fill="black"/>
</svg>
