<svg width="237" height="80" viewBox="0 0 237 80" fill="none" xmlns="http://www.w3.org/2000/svg">
<mask id="mask0_53_241" style="mask-type:luminance" maskUnits="userSpaceOnUse" x="11" y="6" width="33" height="68">
<path d="M11.7583 6.50417H43.7583V73.1292H11.7583V6.50417Z" fill="white"/>
</mask>
<g mask="url(#mask0_53_241)">
<mask id="mask1_53_241" style="mask-type:luminance" maskUnits="userSpaceOnUse" x="11" y="6" width="33" height="68">
<path d="M13.6833 28.7C12.5208 32.1125 11.7583 35.9917 11.7583 39.8C11.7583 43.6083 12.4125 47.2708 13.575 50.65C13.6083 50.7208 13.6083 50.7917 13.6458 50.8625C18.2875 63.5458 30.5458 72.8833 43.7583 73.0625V6.50417C30.4708 6.68333 18.2167 15.8792 13.6833 28.7Z" fill="white"/>
</mask>
<g mask="url(#mask1_53_241)">
<mask id="mask2_53_241" style="mask-type:luminance" maskUnits="userSpaceOnUse" x="11" y="6" width="34" height="68">
<path d="M44.8 6.4H11.7333V73.6H44.8V6.4Z" fill="white"/>
</mask>
<g mask="url(#mask2_53_241)">
<mask id="mask3_53_241" style="mask-type:luminance" maskUnits="userSpaceOnUse" x="11" y="6" width="33" height="68">
<path d="M11.7583 6.50417H43.7583V73.1292H11.7583V6.50417Z" fill="white"/>
</mask>
<g mask="url(#mask3_53_241)">
<mask id="mask4_53_241" style="mask-type:luminance" maskUnits="userSpaceOnUse" x="11" y="6" width="33" height="68">
<path d="M13.6833 28.7C12.5208 32.1125 11.7583 35.9917 11.7583 39.8C11.7583 43.6083 12.4125 47.2708 13.575 50.65C13.6083 50.7208 13.6083 50.7917 13.6458 50.8625C18.2875 63.5458 30.5458 72.8833 43.7583 73.0625V6.50417C30.4708 6.68333 18.2167 15.8792 13.6833 28.7Z" fill="white"/>
</mask>
<g mask="url(#mask4_53_241)">
<path d="M43.7583 6.50417V73.0042H11.7583V6.50417H43.7583Z" fill="#0058AF"/>
</g>
</g>
</g>
</g>
</g>
<mask id="mask5_53_241" style="mask-type:luminance" maskUnits="userSpaceOnUse" x="43" y="20" width="26" height="53">
<path d="M43.2458 20.8208H68.2333V72.85H43.2458V20.8208Z" fill="white"/>
</mask>
<g mask="url(#mask5_53_241)">
<mask id="mask6_53_241" style="mask-type:luminance" maskUnits="userSpaceOnUse" x="43" y="20" width="26" height="53">
<path d="M44.7458 38.1583C43.8417 40.8208 43.2458 43.85 43.2458 46.825C43.2458 49.8 43.7542 52.6583 44.6625 55.2958C44.6917 55.35 44.6917 55.4083 44.7167 55.4625C48.3417 65.3667 57.9125 72.6583 68.2333 72.8V20.8208C57.8583 20.9625 48.2875 28.1417 44.7458 38.1583Z" fill="white"/>
</mask>
<g mask="url(#mask6_53_241)">
<mask id="mask7_53_241" style="mask-type:luminance" maskUnits="userSpaceOnUse" x="42" y="20" width="27" height="54">
<path d="M68.2667 20.2667H42.6667V73.6H68.2667V20.2667Z" fill="white"/>
</mask>
<g mask="url(#mask7_53_241)">
<mask id="mask8_53_241" style="mask-type:luminance" maskUnits="userSpaceOnUse" x="43" y="20" width="26" height="53">
<path d="M43.2458 20.8208H68.2333V72.85H43.2458V20.8208Z" fill="white"/>
</mask>
<g mask="url(#mask8_53_241)">
<mask id="mask9_53_241" style="mask-type:luminance" maskUnits="userSpaceOnUse" x="43" y="20" width="26" height="53">
<path d="M44.7458 38.1583C43.8417 40.8208 43.2458 43.85 43.2458 46.825C43.2458 49.8 43.7542 52.6583 44.6625 55.2958C44.6917 55.35 44.6917 55.4083 44.7167 55.4625C48.3417 65.3667 57.9125 72.6583 68.2333 72.8V20.8208C57.8583 20.9625 48.2875 28.1417 44.7458 38.1583Z" fill="white"/>
</mask>
<g mask="url(#mask9_53_241)">
<path d="M68.2333 20.8208V72.75H43.2458V20.8208H68.2333Z" fill="#0058AF"/>
</g>
</g>
</g>
</g>
</g>
<mask id="mask10_53_241" style="mask-type:luminance" maskUnits="userSpaceOnUse" x="43" y="48" width="26" height="26">
<path d="M43.4667 48.6708H68.2333V73.2042H43.4667V48.6708Z" fill="white"/>
</mask>
<g mask="url(#mask10_53_241)">
<mask id="mask11_53_241" style="mask-type:luminance" maskUnits="userSpaceOnUse" x="42" y="48" width="27" height="26">
<path d="M68.2667 48H42.6667V73.6H68.2667V48Z" fill="white"/>
</mask>
<g mask="url(#mask11_53_241)">
<mask id="mask12_53_241" style="mask-type:luminance" maskUnits="userSpaceOnUse" x="43" y="48" width="26" height="26">
<path d="M43.4667 48.6708H68.2333V73.2042H43.4667V48.6708Z" fill="white"/>
</mask>
<g mask="url(#mask12_53_241)">
<path d="M43.4667 48.6708H68.1958V73.2042H43.4667V48.6708Z" fill="#3291D1"/>
</g>
</g>
</g>
<mask id="mask13_53_241" style="mask-type:luminance" maskUnits="userSpaceOnUse" x="18" y="43" width="26" height="31">
<path d="M18.1333 43.7333H43.7333V73.6H18.1333V43.7333Z" fill="white"/>
</mask>
<g mask="url(#mask13_53_241)">
<mask id="mask14_53_241" style="mask-type:luminance" maskUnits="userSpaceOnUse" x="18" y="37" width="38" height="37">
<path d="M30.8375 37.475L55.7 51.8L43.1833 73.525L18.3208 59.1958L30.8375 37.475Z" fill="white"/>
</mask>
<g mask="url(#mask14_53_241)">
<mask id="mask15_53_241" style="mask-type:luminance" maskUnits="userSpaceOnUse" x="18" y="44" width="26" height="30">
<path d="M43.25 44.625L43.1458 73.5042L18.3208 59.1958L43.25 44.625Z" fill="white"/>
</mask>
<g mask="url(#mask15_53_241)">
<mask id="mask16_53_241" style="mask-type:luminance" maskUnits="userSpaceOnUse" x="18" y="43" width="26" height="31">
<path d="M43.7333 43.7333H18.1333V73.6H43.7333V43.7333Z" fill="white"/>
</mask>
<g mask="url(#mask16_53_241)">
<mask id="mask17_53_241" style="mask-type:luminance" maskUnits="userSpaceOnUse" x="18" y="44" width="26" height="30">
<path d="M18.175 44.5458H43.2625V73.6H18.175V44.5458Z" fill="white"/>
</mask>
<g mask="url(#mask17_53_241)">
<mask id="mask18_53_241" style="mask-type:luminance" maskUnits="userSpaceOnUse" x="18" y="37" width="38" height="37">
<path d="M30.8375 37.475L55.7 51.8L43.1833 73.525L18.3208 59.1958L30.8375 37.475Z" fill="white"/>
</mask>
<g mask="url(#mask18_53_241)">
<mask id="mask19_53_241" style="mask-type:luminance" maskUnits="userSpaceOnUse" x="18" y="44" width="26" height="30">
<path d="M43.25 44.625L43.1458 73.5042L18.3208 59.1958L43.25 44.625Z" fill="white"/>
</mask>
<g mask="url(#mask19_53_241)">
<path d="M30.8375 37.475L55.7 51.8L43.1833 73.525L18.3208 59.1958L30.8375 37.475Z" fill="#014076"/>
</g>
</g>
</g>
</g>
</g>
</g>
</g>
<mask id="mask20_53_241" style="mask-type:luminance" maskUnits="userSpaceOnUse" x="29" y="17" width="15" height="35">
<path d="M29.8792 17.525H43.4667V51.0667H29.8792V17.525Z" fill="white"/>
</mask>
<g mask="url(#mask20_53_241)">
<mask id="mask21_53_241" style="mask-type:luminance" maskUnits="userSpaceOnUse" x="29" y="17" width="15" height="35">
<path d="M43.4667 25.9042V42.6667L29.8792 51.05V17.525L43.4667 25.9042Z" fill="white"/>
</mask>
<g mask="url(#mask21_53_241)">
<mask id="mask22_53_241" style="mask-type:luminance" maskUnits="userSpaceOnUse" x="29" y="17" width="15" height="35">
<path d="M43.7333 17.0667H29.8667V51.2H43.7333V17.0667Z" fill="white"/>
</mask>
<g mask="url(#mask22_53_241)">
<mask id="mask23_53_241" style="mask-type:luminance" maskUnits="userSpaceOnUse" x="29" y="17" width="15" height="35">
<path d="M29.8792 17.525H43.4667V51.0667H29.8792V17.525Z" fill="white"/>
</mask>
<g mask="url(#mask23_53_241)">
<mask id="mask24_53_241" style="mask-type:luminance" maskUnits="userSpaceOnUse" x="29" y="17" width="15" height="35">
<path d="M43.4667 25.9042V42.6667L29.8792 51.05V17.525L43.4667 25.9042Z" fill="white"/>
</mask>
<g mask="url(#mask24_53_241)">
<path d="M43.4667 17.525V51.0667H29.8792V17.525H43.4667Z" fill="#3291D1"/>
</g>
</g>
</g>
</g>
</g>
<path d="M103.227 46.4545H96.8182C96.7727 45.9242 96.6515 45.4432 96.4545 45.0114C96.2652 44.5795 96 44.2083 95.6591 43.8977C95.3258 43.5795 94.9205 43.3371 94.4432 43.1705C93.9659 42.9962 93.4242 42.9091 92.8182 42.9091C91.7576 42.9091 90.8598 43.1667 90.125 43.6818C89.3977 44.197 88.8447 44.9356 88.4659 45.8977C88.0947 46.8598 87.9091 48.0152 87.9091 49.3636C87.9091 50.7879 88.0985 51.9811 88.4773 52.9432C88.8636 53.8977 89.4205 54.6174 90.1477 55.1023C90.875 55.5795 91.75 55.8182 92.7727 55.8182C93.3561 55.8182 93.8788 55.7462 94.3409 55.6023C94.803 55.4508 95.2045 55.2348 95.5455 54.9545C95.8864 54.6742 96.1629 54.3371 96.375 53.9432C96.5947 53.5417 96.7424 53.0909 96.8182 52.5909L103.227 52.6364C103.152 53.6212 102.875 54.625 102.398 55.6477C101.92 56.6629 101.242 57.6023 100.364 58.4659C99.4924 59.322 98.4129 60.0114 97.125 60.5341C95.8371 61.0568 94.3409 61.3182 92.6364 61.3182C90.5 61.3182 88.5833 60.8598 86.8864 59.9432C85.197 59.0265 83.8598 57.678 82.875 55.8977C81.8977 54.1174 81.4091 51.9394 81.4091 49.3636C81.4091 46.7727 81.9091 44.5909 82.9091 42.8182C83.9091 41.0379 85.2576 39.6932 86.9545 38.7841C88.6515 37.8674 90.5455 37.4091 92.6364 37.4091C94.1061 37.4091 95.4583 37.6098 96.6932 38.0114C97.928 38.4129 99.0114 39 99.9432 39.7727C100.875 40.5379 101.625 41.4811 102.193 42.6023C102.761 43.7235 103.106 45.0076 103.227 46.4545ZM112.457 51.1818V61H106.185V37.7273H112.23V46.8636H112.412C112.806 45.75 113.461 44.8826 114.378 44.2614C115.295 43.6326 116.397 43.3182 117.685 43.3182C118.92 43.3182 119.991 43.5985 120.901 44.1591C121.817 44.7197 122.526 45.4924 123.026 46.4773C123.533 47.4621 123.783 48.5909 123.776 49.8636V61H117.503V51.1818C117.51 50.3182 117.295 49.6402 116.855 49.1477C116.423 48.6553 115.806 48.4091 115.003 48.4091C114.495 48.4091 114.048 48.5227 113.662 48.75C113.283 48.9697 112.988 49.2879 112.776 49.7045C112.571 50.1136 112.465 50.6061 112.457 51.1818ZM135.236 61.3182C133.372 61.3182 131.766 60.9621 130.418 60.25C129.077 59.5303 128.043 58.5 127.315 57.1591C126.596 55.8106 126.236 54.197 126.236 52.3182C126.236 50.5152 126.599 48.9394 127.327 47.5909C128.054 46.2424 129.08 45.1932 130.406 44.4432C131.732 43.6932 133.296 43.3182 135.099 43.3182C136.418 43.3182 137.611 43.5227 138.679 43.9318C139.747 44.3409 140.66 44.9356 141.418 45.7159C142.175 46.4886 142.759 47.428 143.168 48.5341C143.577 49.6402 143.781 50.8864 143.781 52.2727V53.7273H128.19V50.2727H138.009C138.001 49.7727 137.872 49.3333 137.622 48.9545C137.38 48.5682 137.05 48.2689 136.634 48.0568C136.224 47.8371 135.759 47.7273 135.236 47.7273C134.728 47.7273 134.262 47.8371 133.838 48.0568C133.414 48.2689 133.073 48.5644 132.815 48.9432C132.565 49.322 132.433 49.7652 132.418 50.2727V54C132.418 54.5606 132.535 55.0606 132.77 55.5C133.005 55.9394 133.342 56.2841 133.781 56.5341C134.221 56.7841 134.751 56.9091 135.372 56.9091C135.804 56.9091 136.198 56.8485 136.554 56.7273C136.918 56.6061 137.228 56.4318 137.486 56.2045C137.743 55.9697 137.933 55.6894 138.054 55.3636H143.781C143.584 56.5758 143.118 57.6288 142.384 58.5227C141.649 59.4091 140.675 60.0985 139.463 60.5909C138.259 61.0758 136.849 61.3182 135.236 61.3182ZM154.75 61.3182C152.856 61.3182 151.235 60.9432 149.886 60.1932C148.538 59.4356 147.504 58.3826 146.784 57.0341C146.064 55.678 145.705 54.1061 145.705 52.3182C145.705 50.5303 146.064 48.9621 146.784 47.6136C147.504 46.2576 148.538 45.2045 149.886 44.4545C151.235 43.697 152.856 43.3182 154.75 43.3182C156.462 43.3182 157.943 43.6288 159.193 44.25C160.451 44.8636 161.424 45.7348 162.114 46.8636C162.803 47.9848 163.152 49.303 163.159 50.8182H157.341C157.258 49.9015 156.992 49.2045 156.545 48.7273C156.106 48.2424 155.538 48 154.841 48C154.295 48 153.818 48.1591 153.409 48.4773C153 48.7879 152.682 49.2614 152.455 49.8977C152.227 50.5265 152.114 51.3182 152.114 52.2727C152.114 53.2273 152.227 54.0227 152.455 54.6591C152.682 55.2879 153 55.7614 153.409 56.0795C153.818 56.3902 154.295 56.5455 154.841 56.5455C155.303 56.5455 155.712 56.4394 156.068 56.2273C156.424 56.0076 156.712 55.6894 156.932 55.2727C157.159 54.8485 157.295 54.3333 157.341 53.7273H163.159C163.136 55.2652 162.784 56.6061 162.102 57.75C161.42 58.8864 160.455 59.7652 159.205 60.3864C157.962 61.0076 156.477 61.3182 154.75 61.3182ZM171.384 56.8636L171.429 49.4091H172.247L176.474 43.5455H183.52L176.429 52.6818H174.656L171.384 56.8636ZM165.747 61V37.7273H172.02V61H165.747ZM176.52 61L172.52 54.0909L176.611 49.6364L183.702 61H176.52ZM205.108 45H202.29C202.123 44.1894 201.831 43.4773 201.415 42.8636C201.006 42.25 200.506 41.7348 199.915 41.3182C199.331 40.8939 198.684 40.5758 197.972 40.3636C197.259 40.1515 196.517 40.0455 195.744 40.0455C194.335 40.0455 193.059 40.4015 191.915 41.1136C190.778 41.8258 189.873 42.875 189.199 44.2614C188.532 45.6477 188.199 47.3485 188.199 49.3636C188.199 51.3788 188.532 53.0795 189.199 54.4659C189.873 55.8523 190.778 56.9015 191.915 57.6136C193.059 58.3258 194.335 58.6818 195.744 58.6818C196.517 58.6818 197.259 58.5758 197.972 58.3636C198.684 58.1515 199.331 57.8371 199.915 57.4205C200.506 56.9962 201.006 56.4773 201.415 55.8636C201.831 55.2424 202.123 54.5303 202.29 53.7273H205.108C204.896 54.9167 204.509 55.9811 203.949 56.9205C203.388 57.8598 202.691 58.6591 201.858 59.3182C201.025 59.9697 200.089 60.4659 199.051 60.8068C198.021 61.1477 196.919 61.3182 195.744 61.3182C193.759 61.3182 191.994 60.8333 190.449 59.8636C188.903 58.8939 187.688 57.5152 186.801 55.7273C185.915 53.9394 185.472 51.8182 185.472 49.3636C185.472 46.9091 185.915 44.7879 186.801 43C187.688 41.2121 188.903 39.8333 190.449 38.8636C191.994 37.8939 193.759 37.4091 195.744 37.4091C196.919 37.4091 198.021 37.5795 199.051 37.9205C200.089 38.2614 201.025 38.7614 201.858 39.4205C202.691 40.072 203.388 40.8674 203.949 41.8068C204.509 42.7386 204.896 43.803 205.108 45ZM214.435 61.4091C213.329 61.4091 212.325 61.2008 211.423 60.7841C210.522 60.3598 209.806 59.75 209.276 58.9545C208.745 58.1515 208.48 57.1818 208.48 56.0455C208.48 55.0455 208.677 54.2348 209.071 53.6136C209.465 52.9848 209.991 52.4924 210.651 52.1364C211.31 51.7803 212.037 51.5152 212.832 51.3409C213.635 51.1591 214.442 51.0152 215.253 50.9091C216.313 50.7727 217.173 50.6705 217.832 50.6023C218.499 50.5265 218.984 50.4015 219.287 50.2273C219.598 50.053 219.753 49.75 219.753 49.3182V49.2273C219.753 48.1061 219.446 47.2348 218.832 46.6136C218.226 45.9924 217.306 45.6818 216.071 45.6818C214.791 45.6818 213.787 45.9621 213.06 46.5227C212.332 47.0833 211.821 47.6818 211.526 48.3182L208.98 47.4091C209.435 46.3485 210.041 45.5227 210.798 44.9318C211.563 44.3333 212.397 43.9167 213.298 43.6818C214.207 43.4394 215.101 43.3182 215.98 43.3182C216.541 43.3182 217.185 43.3864 217.912 43.5227C218.647 43.6515 219.355 43.9205 220.037 44.3295C220.726 44.7386 221.298 45.3561 221.753 46.1818C222.207 47.0076 222.435 48.1136 222.435 49.5V61H219.753V58.6364H219.616C219.435 59.0152 219.132 59.4205 218.707 59.8523C218.283 60.2841 217.719 60.6515 217.014 60.9545C216.31 61.2576 215.45 61.4091 214.435 61.4091ZM214.844 59C215.904 59 216.798 58.7917 217.526 58.375C218.26 57.9583 218.813 57.4205 219.185 56.7614C219.563 56.1023 219.753 55.4091 219.753 54.6818V52.2273C219.639 52.3636 219.389 52.4886 219.003 52.6023C218.624 52.7083 218.185 52.803 217.685 52.8864C217.192 52.9621 216.711 53.0303 216.241 53.0909C215.779 53.1439 215.404 53.1894 215.116 53.2273C214.42 53.3182 213.768 53.4659 213.162 53.6705C212.563 53.8674 212.079 54.1667 211.707 54.5682C211.344 54.9621 211.162 55.5 211.162 56.1818C211.162 57.1136 211.507 57.8182 212.196 58.2955C212.893 58.7652 213.776 59 214.844 59ZM227.33 61V43.5455H229.92V46.1818H230.102C230.42 45.3182 230.996 44.6174 231.83 44.0795C232.663 43.5417 233.602 43.2727 234.648 43.2727C234.845 43.2727 235.091 43.2765 235.386 43.2841C235.682 43.2917 235.905 43.303 236.057 43.3182V46.0455C235.966 46.0227 235.758 45.9886 235.432 45.9432C235.114 45.8902 234.777 45.8636 234.42 45.8636C233.572 45.8636 232.814 46.0417 232.148 46.3977C231.489 46.7462 230.966 47.2311 230.58 47.8523C230.201 48.4659 230.011 49.1667 230.011 49.9545V61H227.33Z" fill="black"/>
</svg>
